<svg width="16" height="17" viewBox="0 0 16 17" fill="none" xmlns="http://www.w3.org/2000/svg">
<g clip-path="url(#clip0_582_305)">
<path fill-rule="evenodd" clip-rule="evenodd" d="M7.9999 1.69336C7.661 1.69336 7.32807 1.78244 7.03446 1.95167L7.03324 1.95238L4.89416 3.1747C4.76079 3.19865 4.6362 3.26741 4.5445 3.37451L2.36889 4.61771L2.36888 4.61771L2.36657 4.61904C2.1265 4.75764 1.91969 4.94587 1.7595 5.17035C1.72175 5.20745 1.68833 5.25019 1.66054 5.29822C1.63648 5.33982 1.61796 5.3831 1.60478 5.42721C1.47059 5.69499 1.40021 5.99081 1.3999 6.29138V6.29199V11.6253V11.6259C1.40025 11.965 1.48975 12.298 1.65942 12.5915C1.82908 12.885 2.07296 13.1288 2.36657 13.2983L2.36889 13.2996L7.03324 15.9649L7.0346 15.9657C7.24235 16.0854 7.46978 16.165 7.70508 16.2013C7.79215 16.2506 7.89275 16.2787 7.9999 16.2787C8.10706 16.2787 8.20766 16.2506 8.29473 16.2013C8.53001 16.165 8.75742 16.0855 8.96514 15.9658L8.96657 15.9649L13.6309 13.2996L13.6332 13.2983C13.9268 13.1288 14.1707 12.885 14.3404 12.5915C14.5101 12.298 14.5996 11.965 14.5999 11.6259V11.6253V6.29199V6.29138C14.5996 5.99081 14.5292 5.69499 14.395 5.42721C14.3818 5.3831 14.3633 5.33982 14.3393 5.29822C14.3115 5.25019 14.2781 5.20745 14.2403 5.17036C14.0801 4.94587 13.8733 4.75765 13.6332 4.61904L13.6309 4.61771L8.96657 1.95238L8.96529 1.95164C8.67169 1.78243 8.33878 1.69336 7.9999 1.69336ZM8.5999 14.7924L13.0332 12.259L13.0342 12.2585C13.1451 12.1942 13.2373 12.102 13.3015 11.991C13.3658 11.8796 13.3998 11.7533 13.3999 11.6247V6.53477L8.5999 9.3114V14.7924ZM7.3999 9.3114L2.5999 6.53477V11.625C2.60008 11.7535 2.63402 11.8797 2.69834 11.991C2.76251 12.102 2.85466 12.1942 2.9656 12.2585L2.96657 12.259L7.3999 14.7924V9.3114ZM8.36889 2.99294L12.7743 5.51033L11.0034 6.53474L6.23992 3.78779L7.63092 2.99294L7.63092 2.99294L7.63324 2.99161C7.74472 2.92724 7.87118 2.89336 7.9999 2.89336C8.12863 2.89336 8.25509 2.92724 8.36657 2.99161L8.36657 2.99161L8.36889 2.99294ZM7.9999 8.27217L9.80422 7.22843L5.03338 4.47724L3.22547 5.51033L7.9999 8.27217Z" fill="#777777"/>
</g>
<defs>
<clipPath id="clip0_582_305">
<rect width="16" height="16" fill="white" transform="translate(0 0.958496)"/>
</clipPath>
</defs>
</svg>
