<svg width="1440" height="867" viewBox="0 0 1440 867" fill="none" xmlns="http://www.w3.org/2000/svg">
<mask id="path-1-inside-1_247_7167" fill="white">
<path fill-rule="evenodd" clip-rule="evenodd" d="M991.012 761.194L0.0303345 761.194L0.0302587 -105.915L991.012 -105.915L991.012 761.194ZM989.463 759.645L868.687 759.645L868.687 638.87L989.463 638.87L989.463 759.645ZM865.591 759.645L744.815 759.645L744.815 638.87L865.591 638.87L865.591 759.645ZM620.942 759.645L741.718 759.645L741.718 638.87L620.942 638.87L620.942 759.645ZM617.845 759.645L497.069 759.645L497.069 638.87L617.845 638.87L617.845 759.645ZM373.197 759.645L493.973 759.645L493.973 638.87L373.197 638.87L373.197 759.645ZM370.1 759.645L249.324 759.646L249.324 638.87L370.1 638.87L370.1 759.645ZM125.451 759.646L246.227 759.646L246.227 638.87L125.451 638.87L125.451 759.646ZM122.355 759.646L1.57874 759.646L1.57872 638.87L122.355 638.87L122.355 759.646ZM868.687 635.773L989.463 635.773L989.463 514.997L868.687 514.997L868.687 635.773ZM865.591 635.773L744.815 635.773L744.815 514.997L865.591 514.997L865.591 635.773ZM620.942 635.773L741.718 635.773L741.718 514.997L620.942 514.997L620.942 635.773ZM617.845 635.773L497.069 635.773L497.069 514.997L617.845 514.997L617.845 635.773ZM373.197 635.773L493.973 635.773L493.973 514.997L373.197 514.997L373.197 635.773ZM370.1 635.773L249.324 635.773L249.324 514.997L370.1 514.997L370.1 635.773ZM125.451 635.773L246.227 635.773L246.227 514.997L125.451 514.997L125.451 635.773ZM122.355 635.773L1.57872 635.773L1.57871 514.997L122.355 514.997L122.355 635.773ZM868.687 511.9L989.463 511.9L989.463 391.124L868.687 391.124L868.687 511.9ZM865.591 511.9L744.815 511.9L744.815 391.124L865.591 391.124L865.591 511.9ZM620.942 511.9L741.718 511.9L741.718 391.124L620.942 391.124L620.942 511.9ZM617.845 511.9L497.069 511.9L497.069 391.124L617.845 391.124L617.845 511.9ZM373.197 511.9L493.973 511.9L493.973 391.124L373.197 391.124L373.197 511.9ZM370.1 511.9L249.324 511.9L249.324 391.124L370.1 391.124L370.1 511.9ZM125.451 511.9L246.227 511.9L246.227 391.124L125.451 391.124L125.451 511.9ZM122.355 511.9L1.57871 511.9L1.5787 391.124L122.355 391.124L122.355 511.9ZM868.687 388.027L989.463 388.027L989.463 267.252L868.687 267.252L868.687 388.027ZM865.591 388.027L744.815 388.027L744.815 267.252L865.591 267.252L865.591 388.027ZM620.942 388.027L741.718 388.027L741.718 267.252L620.942 267.252L620.942 388.027ZM617.845 388.027L497.069 388.027L497.069 267.252L617.845 267.252L617.845 388.027ZM373.197 388.027L493.973 388.027L493.973 267.252L373.197 267.252L373.197 388.027ZM370.1 388.027L249.324 388.027L249.324 267.252L370.1 267.252L370.1 388.027ZM125.451 388.027L246.227 388.027L246.227 267.252L125.451 267.252L125.451 388.027ZM122.355 388.027L1.5787 388.027L1.57869 267.252L122.355 267.252L122.355 388.027ZM868.687 264.155L989.463 264.155L989.463 143.379L868.687 143.379L868.687 264.155ZM865.591 264.155L744.815 264.155L744.815 143.379L865.591 143.379L865.591 264.155ZM620.942 264.155L741.718 264.155L741.718 143.379L620.942 143.379L620.942 264.155ZM617.845 264.155L497.069 264.155L497.069 143.379L617.845 143.379L617.845 264.155ZM373.197 264.155L493.973 264.155L493.973 143.379L373.197 143.379L373.197 264.155ZM370.1 264.155L249.324 264.155L249.324 143.379L370.1 143.379L370.1 264.155ZM125.451 264.155L246.227 264.155L246.227 143.379L125.451 143.379L125.451 264.155ZM122.355 264.155L1.57869 264.155L1.57868 143.379L122.355 143.379L122.355 264.155ZM868.687 140.282L989.463 140.282L989.463 19.5062L868.687 19.5062L868.687 140.282ZM865.591 140.282L744.815 140.282L744.815 19.5062L865.591 19.5062L865.591 140.282ZM620.942 140.282L741.718 140.282L741.718 19.5062L620.942 19.5062L620.942 140.282ZM617.845 140.282L497.069 140.282L497.069 19.5062L617.845 19.5062L617.845 140.282ZM373.197 140.282L493.973 140.282L493.973 19.5062L373.197 19.5062L373.197 140.282ZM370.1 140.282L249.324 140.282L249.324 19.5062L370.1 19.5062L370.1 140.282ZM125.451 140.282L246.227 140.282L246.227 19.5062L125.451 19.5062L125.451 140.282ZM122.355 140.282L1.57868 140.282L1.57867 19.5063L122.355 19.5062L122.355 140.282ZM868.687 16.4094L989.463 16.4094L989.463 -104.367L868.687 -104.367L868.687 16.4094ZM865.591 16.4094L744.815 16.4094L744.815 -104.366L865.591 -104.367L865.591 16.4094ZM620.942 16.4094L741.718 16.4094L741.718 -104.366L620.942 -104.366L620.942 16.4094ZM617.845 16.4094L497.069 16.4094L497.069 -104.366L617.845 -104.366L617.845 16.4094ZM373.197 16.4094L493.973 16.4094L493.973 -104.366L373.197 -104.366L373.197 16.4094ZM370.1 16.4094L249.324 16.4094L249.324 -104.366L370.1 -104.366L370.1 16.4094ZM125.451 16.4094L246.227 16.4094L246.227 -104.366L125.451 -104.366L125.451 16.4094ZM122.355 16.4094L1.57867 16.4094L1.57866 -104.366L122.355 -104.366L122.355 16.4094Z"/>
</mask>
<path fill-rule="evenodd" clip-rule="evenodd" d="M991.012 761.194L0.0303345 761.194L0.0302587 -105.915L991.012 -105.915L991.012 761.194ZM989.463 759.645L868.687 759.645L868.687 638.87L989.463 638.87L989.463 759.645ZM865.591 759.645L744.815 759.645L744.815 638.87L865.591 638.87L865.591 759.645ZM620.942 759.645L741.718 759.645L741.718 638.87L620.942 638.87L620.942 759.645ZM617.845 759.645L497.069 759.645L497.069 638.87L617.845 638.87L617.845 759.645ZM373.197 759.645L493.973 759.645L493.973 638.87L373.197 638.87L373.197 759.645ZM370.1 759.645L249.324 759.646L249.324 638.87L370.1 638.87L370.1 759.645ZM125.451 759.646L246.227 759.646L246.227 638.87L125.451 638.87L125.451 759.646ZM122.355 759.646L1.57874 759.646L1.57872 638.87L122.355 638.87L122.355 759.646ZM868.687 635.773L989.463 635.773L989.463 514.997L868.687 514.997L868.687 635.773ZM865.591 635.773L744.815 635.773L744.815 514.997L865.591 514.997L865.591 635.773ZM620.942 635.773L741.718 635.773L741.718 514.997L620.942 514.997L620.942 635.773ZM617.845 635.773L497.069 635.773L497.069 514.997L617.845 514.997L617.845 635.773ZM373.197 635.773L493.973 635.773L493.973 514.997L373.197 514.997L373.197 635.773ZM370.1 635.773L249.324 635.773L249.324 514.997L370.1 514.997L370.1 635.773ZM125.451 635.773L246.227 635.773L246.227 514.997L125.451 514.997L125.451 635.773ZM122.355 635.773L1.57872 635.773L1.57871 514.997L122.355 514.997L122.355 635.773ZM868.687 511.9L989.463 511.9L989.463 391.124L868.687 391.124L868.687 511.9ZM865.591 511.9L744.815 511.9L744.815 391.124L865.591 391.124L865.591 511.9ZM620.942 511.9L741.718 511.9L741.718 391.124L620.942 391.124L620.942 511.9ZM617.845 511.9L497.069 511.9L497.069 391.124L617.845 391.124L617.845 511.9ZM373.197 511.9L493.973 511.9L493.973 391.124L373.197 391.124L373.197 511.9ZM370.1 511.9L249.324 511.9L249.324 391.124L370.1 391.124L370.1 511.9ZM125.451 511.9L246.227 511.9L246.227 391.124L125.451 391.124L125.451 511.9ZM122.355 511.9L1.57871 511.9L1.5787 391.124L122.355 391.124L122.355 511.9ZM868.687 388.027L989.463 388.027L989.463 267.252L868.687 267.252L868.687 388.027ZM865.591 388.027L744.815 388.027L744.815 267.252L865.591 267.252L865.591 388.027ZM620.942 388.027L741.718 388.027L741.718 267.252L620.942 267.252L620.942 388.027ZM617.845 388.027L497.069 388.027L497.069 267.252L617.845 267.252L617.845 388.027ZM373.197 388.027L493.973 388.027L493.973 267.252L373.197 267.252L373.197 388.027ZM370.1 388.027L249.324 388.027L249.324 267.252L370.1 267.252L370.1 388.027ZM125.451 388.027L246.227 388.027L246.227 267.252L125.451 267.252L125.451 388.027ZM122.355 388.027L1.5787 388.027L1.57869 267.252L122.355 267.252L122.355 388.027ZM868.687 264.155L989.463 264.155L989.463 143.379L868.687 143.379L868.687 264.155ZM865.591 264.155L744.815 264.155L744.815 143.379L865.591 143.379L865.591 264.155ZM620.942 264.155L741.718 264.155L741.718 143.379L620.942 143.379L620.942 264.155ZM617.845 264.155L497.069 264.155L497.069 143.379L617.845 143.379L617.845 264.155ZM373.197 264.155L493.973 264.155L493.973 143.379L373.197 143.379L373.197 264.155ZM370.1 264.155L249.324 264.155L249.324 143.379L370.1 143.379L370.1 264.155ZM125.451 264.155L246.227 264.155L246.227 143.379L125.451 143.379L125.451 264.155ZM122.355 264.155L1.57869 264.155L1.57868 143.379L122.355 143.379L122.355 264.155ZM868.687 140.282L989.463 140.282L989.463 19.5062L868.687 19.5062L868.687 140.282ZM865.591 140.282L744.815 140.282L744.815 19.5062L865.591 19.5062L865.591 140.282ZM620.942 140.282L741.718 140.282L741.718 19.5062L620.942 19.5062L620.942 140.282ZM617.845 140.282L497.069 140.282L497.069 19.5062L617.845 19.5062L617.845 140.282ZM373.197 140.282L493.973 140.282L493.973 19.5062L373.197 19.5062L373.197 140.282ZM370.1 140.282L249.324 140.282L249.324 19.5062L370.1 19.5062L370.1 140.282ZM125.451 140.282L246.227 140.282L246.227 19.5062L125.451 19.5062L125.451 140.282ZM122.355 140.282L1.57868 140.282L1.57867 19.5063L122.355 19.5062L122.355 140.282ZM868.687 16.4094L989.463 16.4094L989.463 -104.367L868.687 -104.367L868.687 16.4094ZM865.591 16.4094L744.815 16.4094L744.815 -104.366L865.591 -104.367L865.591 16.4094ZM620.942 16.4094L741.718 16.4094L741.718 -104.366L620.942 -104.366L620.942 16.4094ZM617.845 16.4094L497.069 16.4094L497.069 -104.366L617.845 -104.366L617.845 16.4094ZM373.197 16.4094L493.973 16.4094L493.973 -104.366L373.197 -104.366L373.197 16.4094ZM370.1 16.4094L249.324 16.4094L249.324 -104.366L370.1 -104.366L370.1 16.4094ZM125.451 16.4094L246.227 16.4094L246.227 -104.366L125.451 -104.366L125.451 16.4094ZM122.355 16.4094L1.57867 16.4094L1.57866 -104.366L122.355 -104.366L122.355 16.4094Z" fill="white" stroke="#F2F2F2" stroke-width="2" mask="url(#path-1-inside-1_247_7167)"/>
<g filter="url(#filter0_b_247_7167)">
<rect x="495.133" y="368.039" width="123.976" height="118.442" fill="#D9D9D9" fill-opacity="0.33"/>
</g>
<g filter="url(#filter1_b_247_7167)">
<rect x="124.211" y="2.72656" width="123.976" height="118.442" fill="#D9D9D9" fill-opacity="0.33"/>
</g>
<g filter="url(#filter2_b_247_7167)">
<rect x="371.156" y="121.168" width="123.976" height="118.442" fill="#D9D9D9" fill-opacity="0.33"/>
</g>
<g filter="url(#filter3_b_247_7167)">
<rect x="1425.1" y="383.44" width="123.976" height="118.442" fill="#D9D9D9" fill-opacity="0.33"/>
</g>
<g filter="url(#filter4_b_247_7167)">
<rect x="1425.1" y="737.238" width="123.976" height="118.442" fill="#D9D9D9" fill-opacity="0.33"/>
</g>
<path opacity="0.2" fill-rule="evenodd" clip-rule="evenodd" d="M1924.83 761.194L933.849 761.194L933.849 -105.915L1924.83 -105.915L1924.83 761.194ZM1923.28 759.645L1802.51 759.645L1802.51 638.87L1923.28 638.87L1923.28 759.645ZM1799.41 759.645L1678.63 759.645L1678.63 638.87L1799.41 638.87L1799.41 759.645ZM1554.76 759.645L1675.54 759.645L1675.54 638.87L1554.76 638.87L1554.76 759.645ZM1551.66 759.645L1430.89 759.645L1430.89 638.87L1551.66 638.87L1551.66 759.645ZM1307.02 759.645L1427.79 759.645L1427.79 638.87L1307.02 638.87L1307.02 759.645ZM1303.92 759.645L1183.14 759.646L1183.14 638.87L1303.92 638.87L1303.92 759.645ZM1059.27 759.646L1180.05 759.646L1180.05 638.87L1059.27 638.87L1059.27 759.646ZM1056.17 759.646L935.397 759.646L935.397 638.87L1056.17 638.87L1056.17 759.646ZM1802.51 635.773L1923.28 635.773L1923.28 514.997L1802.51 514.997L1802.51 635.773ZM1799.41 635.773L1678.63 635.773L1678.63 514.997L1799.41 514.997L1799.41 635.773ZM1554.76 635.773L1675.54 635.773L1675.54 514.997L1554.76 514.997L1554.76 635.773ZM1551.66 635.773L1430.89 635.773L1430.89 514.997L1551.66 514.997L1551.66 635.773ZM1307.02 635.773L1427.79 635.773L1427.79 514.997L1307.02 514.997L1307.02 635.773ZM1303.92 635.773L1183.14 635.773L1183.14 514.997L1303.92 514.997L1303.92 635.773ZM1059.27 635.773L1180.05 635.773L1180.05 514.997L1059.27 514.997L1059.27 635.773ZM1056.17 635.773L935.397 635.773L935.397 514.997L1056.17 514.997L1056.17 635.773ZM1802.51 511.9L1923.28 511.9L1923.28 391.124L1802.51 391.124L1802.51 511.9ZM1799.41 511.9L1678.63 511.9L1678.63 391.124L1799.41 391.124L1799.41 511.9ZM1554.76 511.9L1675.54 511.9L1675.54 391.124L1554.76 391.124L1554.76 511.9ZM1551.66 511.9L1430.89 511.9L1430.89 391.124L1551.66 391.124L1551.66 511.9ZM1307.02 511.9L1427.79 511.9L1427.79 391.124L1307.02 391.124L1307.02 511.9ZM1303.92 511.9L1183.14 511.9L1183.14 391.124L1303.92 391.124L1303.92 511.9ZM1059.27 511.9L1180.05 511.9L1180.05 391.124L1059.27 391.124L1059.27 511.9ZM1056.17 511.9L935.397 511.9L935.397 391.124L1056.17 391.124L1056.17 511.9ZM1802.51 388.027L1923.28 388.027L1923.28 267.252L1802.51 267.252L1802.51 388.027ZM1799.41 388.027L1678.63 388.027L1678.63 267.252L1799.41 267.252L1799.41 388.027ZM1554.76 388.027L1675.54 388.027L1675.54 267.252L1554.76 267.252L1554.76 388.027ZM1551.66 388.027L1430.89 388.027L1430.89 267.252L1551.66 267.252L1551.66 388.027ZM1307.02 388.027L1427.79 388.027L1427.79 267.252L1307.02 267.252L1307.02 388.027ZM1303.92 388.027L1183.14 388.027L1183.14 267.252L1303.92 267.252L1303.92 388.027ZM1059.27 388.027L1180.05 388.027L1180.05 267.252L1059.27 267.252L1059.27 388.027ZM1056.17 388.027L935.397 388.027L935.397 267.252L1056.17 267.252L1056.17 388.027ZM1802.51 264.155L1923.28 264.155L1923.28 143.379L1802.51 143.379L1802.51 264.155ZM1799.41 264.155L1678.63 264.155L1678.63 143.379L1799.41 143.379L1799.41 264.155ZM1554.76 264.155L1675.54 264.155L1675.54 143.379L1554.76 143.379L1554.76 264.155ZM1551.66 264.155L1430.89 264.155L1430.89 143.379L1551.66 143.379L1551.66 264.155ZM1307.02 264.155L1427.79 264.155L1427.79 143.379L1307.02 143.379L1307.02 264.155ZM1303.92 264.155L1183.14 264.155L1183.14 143.379L1303.92 143.379L1303.92 264.155ZM1059.27 264.155L1180.05 264.155L1180.05 143.379L1059.27 143.379L1059.27 264.155ZM1056.17 264.155L935.397 264.155L935.397 143.379L1056.17 143.379L1056.17 264.155ZM1802.51 140.282L1923.28 140.282L1923.28 19.5062L1802.51 19.5062L1802.51 140.282ZM1799.41 140.282L1678.63 140.282L1678.63 19.5062L1799.41 19.5062L1799.41 140.282ZM1554.76 140.282L1675.54 140.282L1675.54 19.5062L1554.76 19.5062L1554.76 140.282ZM1551.66 140.282L1430.89 140.282L1430.89 19.5062L1551.66 19.5062L1551.66 140.282ZM1307.02 140.282L1427.79 140.282L1427.79 19.5062L1307.02 19.5062L1307.02 140.282ZM1303.92 140.282L1183.14 140.282L1183.14 19.5062L1303.92 19.5062L1303.92 140.282ZM1059.27 140.282L1180.05 140.282L1180.05 19.5062L1059.27 19.5062L1059.27 140.282ZM1056.17 140.282L935.397 140.282L935.397 19.5063L1056.17 19.5062L1056.17 140.282ZM1802.51 16.4094L1923.28 16.4094L1923.28 -104.367L1802.51 -104.367L1802.51 16.4094ZM1799.41 16.4094L1678.63 16.4094L1678.63 -104.366L1799.41 -104.367L1799.41 16.4094ZM1554.76 16.4094L1675.54 16.4094L1675.54 -104.366L1554.76 -104.366L1554.76 16.4094ZM1551.66 16.4094L1430.89 16.4094L1430.89 -104.366L1551.66 -104.366L1551.66 16.4094ZM1307.02 16.4094L1427.79 16.4094L1427.79 -104.366L1307.02 -104.366L1307.02 16.4094ZM1303.92 16.4094L1183.14 16.4094L1183.14 -104.366L1303.92 -104.366L1303.92 16.4094ZM1059.27 16.4094L1180.05 16.4094L1180.05 -104.366L1059.27 -104.366L1059.27 16.4094ZM1056.17 16.4094L935.397 16.4094L935.397 -104.366L1056.17 -104.366L1056.17 16.4094Z" fill="url(#paint0_linear_247_7167)"/>
<defs>
<filter id="filter0_b_247_7167" x="491.133" y="364.039" width="131.976" height="126.442" filterUnits="userSpaceOnUse" color-interpolation-filters="sRGB">
<feFlood flood-opacity="0" result="BackgroundImageFix"/>
<feGaussianBlur in="BackgroundImageFix" stdDeviation="2"/>
<feComposite in2="SourceAlpha" operator="in" result="effect1_backgroundBlur_247_7167"/>
<feBlend mode="normal" in="SourceGraphic" in2="effect1_backgroundBlur_247_7167" result="shape"/>
</filter>
<filter id="filter1_b_247_7167" x="120.211" y="-1.27344" width="131.976" height="126.442" filterUnits="userSpaceOnUse" color-interpolation-filters="sRGB">
<feFlood flood-opacity="0" result="BackgroundImageFix"/>
<feGaussianBlur in="BackgroundImageFix" stdDeviation="2"/>
<feComposite in2="SourceAlpha" operator="in" result="effect1_backgroundBlur_247_7167"/>
<feBlend mode="normal" in="SourceGraphic" in2="effect1_backgroundBlur_247_7167" result="shape"/>
</filter>
<filter id="filter2_b_247_7167" x="367.156" y="117.168" width="131.976" height="126.442" filterUnits="userSpaceOnUse" color-interpolation-filters="sRGB">
<feFlood flood-opacity="0" result="BackgroundImageFix"/>
<feGaussianBlur in="BackgroundImageFix" stdDeviation="2"/>
<feComposite in2="SourceAlpha" operator="in" result="effect1_backgroundBlur_247_7167"/>
<feBlend mode="normal" in="SourceGraphic" in2="effect1_backgroundBlur_247_7167" result="shape"/>
</filter>
<filter id="filter3_b_247_7167" x="1421.1" y="379.44" width="131.976" height="126.442" filterUnits="userSpaceOnUse" color-interpolation-filters="sRGB">
<feFlood flood-opacity="0" result="BackgroundImageFix"/>
<feGaussianBlur in="BackgroundImageFix" stdDeviation="2"/>
<feComposite in2="SourceAlpha" operator="in" result="effect1_backgroundBlur_247_7167"/>
<feBlend mode="normal" in="SourceGraphic" in2="effect1_backgroundBlur_247_7167" result="shape"/>
</filter>
<filter id="filter4_b_247_7167" x="1421.1" y="733.238" width="131.976" height="126.442" filterUnits="userSpaceOnUse" color-interpolation-filters="sRGB">
<feFlood flood-opacity="0" result="BackgroundImageFix"/>
<feGaussianBlur in="BackgroundImageFix" stdDeviation="2"/>
<feComposite in2="SourceAlpha" operator="in" result="effect1_backgroundBlur_247_7167"/>
<feBlend mode="normal" in="SourceGraphic" in2="effect1_backgroundBlur_247_7167" result="shape"/>
</filter>
<linearGradient id="paint0_linear_247_7167" x1="860.122" y1="1264.01" x2="1924.83" y2="-87.8591" gradientUnits="userSpaceOnUse">
<stop stop-color="#D0F3DA" stop-opacity="0"/>
<stop offset="1" stop-color="#5EAA72"/>
</linearGradient>
</defs>
</svg>
