<svg width="17" height="17" viewBox="0 0 17 17" fill="none" xmlns="http://www.w3.org/2000/svg">
<g clip-path="url(#clip0_247_6985)">
<path d="M16.5917 8.3997C16.5917 7.74419 16.5373 7.26584 16.4195 6.76978H8.75952V9.72843H13.2557C13.1651 10.4637 12.6756 11.571 11.5878 12.3151L11.5725 12.4141L13.9945 14.2476L14.1623 14.2639C15.7033 12.8732 16.5917 10.8269 16.5917 8.3997Z" fill="#4285F4"/>
<path d="M8.7595 16.1951C10.9623 16.1951 12.8115 15.4863 14.1623 14.2639L11.5878 12.315C10.8988 12.7845 9.97419 13.1123 8.7595 13.1123C6.60204 13.1123 4.77091 11.7216 4.11817 9.79932L4.02249 9.80726L1.50413 11.7118L1.47119 11.8013C2.8128 14.4056 5.56858 16.1951 8.7595 16.1951Z" fill="#34A853"/>
<path d="M4.11827 9.79936C3.94604 9.3033 3.84636 8.77176 3.84636 8.22257C3.84636 7.67332 3.94604 7.14184 4.10921 6.64577L4.10465 6.54013L1.55473 4.60498L1.4713 4.64376C0.918354 5.72449 0.601074 6.93811 0.601074 8.22257C0.601074 9.50703 0.918354 10.7206 1.4713 11.8013L4.11827 9.79936Z" fill="#FBBC05"/>
<path d="M8.7595 3.33269C10.2915 3.33269 11.3249 3.97934 11.9141 4.51974L14.2166 2.32285C12.8025 1.0384 10.9623 0.25 8.7595 0.25C5.56858 0.25 2.8128 2.03937 1.47119 4.64371L4.10911 6.64572C4.77091 4.72347 6.60204 3.33269 8.7595 3.33269Z" fill="#EB4335"/>
</g>
<defs>
<clipPath id="clip0_247_6985">
<rect width="16" height="16" fill="white" transform="translate(0.600098 0.25)"/>
</clipPath>
</defs>
</svg>
