<svg width="19" height="19" viewBox="0 0 19 19" fill="none" xmlns="http://www.w3.org/2000/svg">
<path opacity="0.3" d="M10.8139 13.1977C10.5047 12.8885 10.5047 12.3872 10.8139 12.0781C11.1231 11.7689 11.6243 11.7689 11.9335 12.0781L15.1002 15.2447C15.4093 15.5539 15.4093 16.0552 15.1002 16.3643C14.791 16.6735 14.2897 16.6735 13.9806 16.3643L10.8139 13.1977Z" fill="#B5B5C3"/>
<path fill-rule="evenodd" clip-rule="evenodd" d="M2.66797 8.67936C2.66797 11.7399 5.14906 14.221 8.20964 14.221C11.2702 14.221 13.7513 11.7399 13.7513 8.67936C13.7513 5.61878 11.2702 3.1377 8.20964 3.1377C5.14906 3.1377 2.66797 5.61878 2.66797 8.67936ZM12.1667 8.67952C12.1667 10.8657 10.3945 12.6379 8.20833 12.6379C6.02221 12.6379 4.25 10.8657 4.25 8.67952C4.25 6.4934 6.02221 4.72119 8.20833 4.72119C10.3945 4.72119 12.1667 6.4934 12.1667 8.67952Z" fill="#B5B5C3"/>
</svg>
